<svg version="1.1" id="Layer_1" xmlns="http://www.w3.org/2000/svg" x="0" y="0" viewBox="0 0 108 160" xml:space="preserve"><style>.st1{fill:#88bc24}</style><g opacity=".5"><path class="st1" d="M93.7 39.4c-2.1-3.6-5.1-6.5-8.8-8.5-3.8-2-8.3-3.1-13.3-3.1s-9.4 1-13.2 3.1c-3.2 1.7-5.8 4.1-7.8 7-2-2.9-4.6-5.3-7.9-7-1.4-.8-3-1.4-4.9-1.9l-1.5-.4 1.1-1.2 16-17.6c.4-.5.6-1 .6-1.5V2.9c0-1-.9-1.8-1.9-1.8H14c-1 0-1.9.8-1.9 1.9v3.3c0 1 .8 1.9 1.9 1.9L42.8 8c.4 0 .6.5.3.8L24.2 28.9c-.6.6-.7 1.6-.2 2.4l2.6 3.6c.4.6 1.2.9 2 .7.7-.2 1.6-.3 2.2-.3 8.2 0 14.7 7.3 15.1 13.8.1.9.1 1.6.1 2.4 0 3.5-.5 6.5-1.5 8.7-2 5.3-6 8-11.8 8-3.1 0-5.8-.9-7.9-2.6-2.1-1.7-3.6-4-4.3-6.7-.4-1-.6-2.4-.8-4.3-.1-1-.9-1.7-1.8-1.7h-4.8c-1.1 0-1.9.9-1.9 2 .2 1.8.5 4.4 1.2 6.3 1.6 4.2 4 7.7 7.5 10.2 3.6 2.5 7.9 3.8 12.8 3.8s9.2-1.2 12.7-3.4c.3-.2.5-.4.8-.7v6.5c0 4.8 1.1 9.1 3.2 12.8 2.1 3.7 5 6.6 8.8 8.6s8.3 3.1 13.2 3.1c5 0 9.5-1 13.3-3.1 3.8-2 6.8-4.9 8.8-8.6 2.1-3.7 3.2-8 3.2-12.8V52.4c.1-5-.9-9.3-3-13zm-5.1 38.3c0 5.1-1.6 9.3-4.7 12.4-3.1 3.1-7.3 4.7-12.3 4.7s-9.1-1.6-12.2-4.7c-3.1-3.1-4.7-7.3-4.7-12.4V52c0-5.2 1.6-9.4 4.7-12.5 3.1-3.2 7.2-4.8 12.2-4.8s9.2 1.6 12.3 4.8c3.1 3.2 4.7 7.4 4.7 12.6v25.6z"/><path class="st1" d="M62.1 50.5l2.4-.8h.1v13c0 .1.1.2.2.2h1.7c.1 0 .2-.1.2-.2v-15c0-.1-.1-.2-.2-.2h-1.7c-.1 0-.2 0-.3.1L62 48.9c-.1 0-.1.1-.1.3l.1 1.3c-.1-.1 0 0 .1 0zm12.7 6.1c.6.4 1.4.5 2.2.5 1.2 0 2.1-.4 2.8-1.1h.1v2.9c0 .7-.2 1.3-.7 1.7s-1 .6-1.7.6-1.2-.2-1.7-.6c-.4-.4-.6-.9-.6-1.6v-.2c0-.1-.1-.2-.2-.2h-1.7c-.1 0-.2.1-.2.2v.4c0 .7.2 1.4.6 2s.9 1 1.6 1.4c.7.3 1.4.5 2.3.5 1.4 0 2.4-.4 3.3-1.1.8-.7 1.3-1.7 1.3-2.9v-6.8c0-.8-.1-1.5-.3-2.1-.3-.9-.9-1.6-1.6-2.1s-1.7-.7-2.8-.7c-1 0-1.9.2-2.6.7-.7.4-1.2 1.1-1.6 1.9-.3.7-.4 1.5-.4 2.4 0 1.1.2 2 .6 2.8.3.5.7 1 1.3 1.4zm.4-6.1c.2-.5.5-.8.8-1 .4-.2.8-.4 1.4-.4.5 0 1 .1 1.4.4.4.2.7.6.9 1.1.2.4.3.9.3 1.6 0 .8-.1 1.4-.4 1.9-.4.9-1.1 1.3-2.2 1.3-1 0-1.7-.4-2.2-1.3-.2-.5-.4-1.1-.4-1.8s.2-1.3.4-1.8zm-7.4 16.8c-.7-.5-1.7-.7-2.8-.7-1 0-1.9.2-2.6.7-.7.4-1.2 1.1-1.6 1.9-.3.7-.4 1.5-.4 2.4 0 1.1.2 2 .6 2.8.4.7.8 1.2 1.5 1.5.6.4 1.4.5 2.2.5 1.2 0 2.1-.4 2.8-1.1h.1v2.9c0 .7-.2 1.3-.7 1.7s-1 .6-1.7.6-1.2-.2-1.7-.6c-.4-.4-.5-.9-.5-1.6v-.2c0-.1-.1-.2-.2-.2H61c-.1 0-.2.1-.2.2v.4c0 .7.2 1.4.6 2 .4.6.9 1 1.6 1.4.7.3 1.4.5 2.3.5 1.3 0 2.4-.4 3.3-1.1.8-.7 1.3-1.7 1.3-2.9v-6.8c0-.8-.1-1.5-.3-2.1-.4-1-.9-1.7-1.8-2.2zm-.5 6c-.4.9-1.1 1.3-2.2 1.3-1 0-1.7-.4-2.2-1.3-.2-.5-.4-1.1-.4-1.8s.1-1.2.3-1.7.5-.8.8-1c.4-.2.8-.4 1.4-.4.5 0 1 .1 1.4.4.4.2.7.6.9 1.1.2.4.3.9.3 1.6.1.7 0 1.3-.3 1.8zm15 2.8h-.9c-.1 0-.1 0-.1-.1v-3.3c0-.1-.1-.2-.2-.2h-1.7c-.1 0-.2.1-.2.2V76c0 .1 0 .1-.1.1h-4.5V76l4.1-9v-.2c0-.1-.1-.1-.2-.1h-1.8c-.1 0-.2.1-.2.2l-4.3 9.4c0 .1-.1.2-.1.3v1.2c0 .1.1.2.2.2h6.8c.1 0 .1 0 .1.1v3.8c0 .1.1.2.2.2h1.7c.1 0 .2-.1.2-.2v-3.8c0-.1 0-.1.1-.1h.9c.1 0 .2-.1.2-.2v-1.5c.1-.1.1-.2-.2-.2zm-69.6 49.4c.5.4 1.2.6 1.9.6s1.4-.2 1.9-.5.9-.8 1.1-1.5c.2-.5.2-1 .2-1.5 0-.7-.1-1.2-.3-1.7-.2-.4-.5-.8-.8-1.1-.4-.3-.8-.4-1.3-.5h-.1v-.1l2.3-2.5c.1-.1.1-.1.1-.2v-1.1c0-.1-.1-.2-.2-.2h-5.9c-.1 0-.2.1-.2.2v1c0 .1.1.2.2.2h4.1c.1 0 .1 0 0 .1l-2.6 2.8v.2l.6.8c0 .1.1.1.1.1h.1c.3-.2.5-.2.7-.2.7 0 1.2.3 1.5.9.2.4.2.9.2 1.4s-.1.9-.2 1.2c-.3.7-.8 1.1-1.6 1.1-.4 0-.8-.1-1-.3-.3-.2-.5-.5-.6-.9-.1-.2-.1-.4-.1-.8 0-.1-.1-.2-.2-.2h-1.2c-.1 0-.2.1-.2.2 0 .5.1.9.2 1.2.4.4.7 1 1.3 1.3zm10.3.6c1 0 1.8-.3 2.5-.9.6-.6.9-1.4.9-2.4v-4.4c0-1-.3-1.8-.9-2.3-.6-.6-1.4-.9-2.5-.9-1 0-1.8.3-2.4.9-.6.6-.9 1.4-.9 2.3v4.5c0 1 .3 1.8.9 2.4.4.5 1.4.8 2.4.8zm-2-7.8c0-.6.2-1 .5-1.4.3-.3.8-.5 1.4-.5.6 0 1.1.2 1.4.5s.5.8.5 1.4v4.7c0 .6-.2 1-.5 1.4-.3.3-.8.5-1.4.5-.6 0-1-.2-1.4-.5-.3-.3-.5-.8-.5-1.4v-4.7zm11.7 3.6c.1 0 .2-.1.2-.2v-1c0-.1-.1-.2-.2-.2H28c-.1 0-.2.1-.2.2v1c0 .1 0 .2.2.2h4.7zm7.3-3.7h-1.3c-.1 0-.2 0-.2.1l-1.7 5.5-1.7-5.5c0-.1-.1-.1-.2-.1h-1.3c-.1 0-.1 0-.1.1v.1l2.5 7.5c0 .1.1.1.2.1h1.3c.1 0 .2 0 .2-.1l2.5-7.5c-.1-.1-.1-.2-.2-.2zm2.8 0h-1.1c-.1 0-.2.1-.2.2v5.2c0 .5.1 1 .4 1.4.3.4.6.7 1 .9.4.2.9.3 1.4.3.8 0 1.5-.3 1.9-.8h.1v.6c0 .1.1.2.2.2h1.1c.1 0 .2-.1.2-.2v-7.6c0-.1-.1-.2-.2-.2h-1.1c-.1 0-.2.1-.2.2v4.7c0 .5-.2.9-.5 1.2-.3.3-.7.5-1.2.5s-.9-.2-1.2-.5-.4-.7-.4-1.3v-4.6c0-.1-.1-.2-.2-.2zm13.3 2c-.2-.7-.6-1.2-1.2-1.6-.5-.4-1.2-.6-1.9-.6-.8 0-1.4.2-2 .6-.6.4-1 .9-1.2 1.6-.2.5-.3 1.1-.3 1.8s.1 1.3.3 1.9c.2.7.6 1.2 1.2 1.6.6.4 1.2.6 2 .6.7 0 1.4-.2 1.9-.6s.9-.9 1.2-1.6c.2-.5.3-1.2.3-1.9 0-.6-.2-1.3-.3-1.8zm-1.4 3.3c-.1.4-.4.7-.7 1-.3.2-.7.3-1.1.3-.4 0-.8-.1-1.1-.3-.3-.2-.5-.6-.6-1s-.2-.8-.2-1.4.1-1.1.2-1.4c.1-.4.4-.7.7-1 .3-.2.7-.3 1.1-.3.4 0 .8.1 1.1.3s.5.6.7 1c.1.4.2.8.2 1.4-.1.6-.2 1-.3 1.4zm5.3-7.3h-1.1c-.1 0-.2.1-.2.2v1.8s0 .1-.1.1h-.9c-.1 0-.2.1-.2.2v.9c0 .1.1.2.2.2h.9s.1 0 .1.1v4.6c0 .8.2 1.3.6 1.5.4.3 1 .4 1.7.4h.7c.1 0 .2-.1.2-.2v-.9c0-.1-.1-.2-.2-.2h-.4c-.4 0-.7-.1-.9-.3-.2-.2-.3-.5-.3-.9v-4s0-.1.1-.1h1.6c.1 0 .2-.1.2-.2v-1c0-.1-.1-.2-.2-.2h-1.6s-.1 0-.1-.1v-1.8c0-.1 0-.1-.1-.1zm3.9 2.2v7.4c0 .1.1.2.2.2h1.1c.1 0 .2-.1.2-.2v-7.4c0-.1-.1-.2-.2-.2H64s-.1.1-.1.2zm1.8-2.4c0-.3-.1-.5-.3-.7-.2-.2-.4-.3-.7-.3-.3 0-.5.1-.7.3s-.3.4-.3.7.1.5.3.7.4.3.7.3.5-.1.7-.3c.2-.2.3-.4.3-.7zm6.4 5.2h-1.7c-1 0-1.8.2-2.3.7-.6.5-.8 1.1-.8 1.9s.2 1.4.7 1.7c.5.4 1.1.6 1.9.6.5 0 .9-.1 1.3-.2s.7-.4 1-.6h.1v.5c0 .1.1.2.2.2h1.2c.1 0 .2-.1.2-.2v-5.2c0-.5-.1-.9-.4-1.3-.2-.4-.6-.7-1.1-.9s-1-.3-1.6-.3c-.8 0-1.5.2-2.1.6-.6.4-.9.9-1 1.5 0 .1 0 .1.1.1l1.2.2c.1 0 .2 0 .2-.1.1-.3.2-.5.5-.7s.6-.3 1-.3c.5 0 .9.1 1.2.4.3.3.4.6.4 1l-.2.4zm0 2.2c0 .4-.2.8-.6 1.1-.4.3-.9.4-1.4.4-.4 0-.8-.1-1.1-.3-.3-.2-.4-.5-.4-.9s.2-.7.5-1c.4-.2.8-.4 1.4-.4h1.4s.1 0 .1.1l.1 1zm9.1.4c0-.5-.1-.9-.4-1.2-.3-.3-.6-.5-1-.7s-.9-.3-1.5-.5-1-.3-1.3-.5-.4-.4-.4-.7.1-.5.4-.7.6-.3 1.1-.3.9.1 1.2.3c.3.2.4.4.4.7 0 .1.1.2.2.2H81c.1 0 .2-.1.2-.2 0-.4-.1-.8-.4-1.1-.2-.3-.6-.6-1-.8-.5-.2-1-.3-1.6-.3-.9 0-1.6.2-2.1.6-.5.4-.8.9-.8 1.6 0 .5.1.9.4 1.2.3.3.6.5 1 .7s.9.3 1.5.5 1 .3 1.3.5c.3.1.4.4.4.7 0 .3-.1.6-.4.8-.3.2-.7.3-1.1.3-.5 0-.9-.1-1.2-.3-.3-.2-.5-.5-.5-.7v-.1c0-.1-.1-.2-.2-.2h-1.1c-.1 0-.2.1-.2.2v.2c0 .4.1.7.4 1.1.3.3.6.6 1.1.8.5.2 1 .3 1.6.3.9 0 1.6-.2 2.2-.6.5-.5.7-1.1.7-1.8zM18 131.6c-.1 0-.2.1-.2.2v4.5s0 .1-.1.1h-4.3s-.1 0-.1-.1v-4.5c0-.1-.1-.2-.2-.2h-1.2c-.1 0-.2.1-.2.2v10.4c0 .1 0 .2.2.2h1.3c.1 0 .2-.1.2-.2v-4.5s0-.1.1-.1h4.3s.1 0 .1.1v4.5c0 .1.1.2.2.2h1.1c.1 0 .2-.1.2-.2v-10.4c0-.1-.1-.2-.2-.2H18zm9.8 9.4v-.2l-.9-.6c-.1-.1-.1-.1-.2 0-.4.6-1 .9-1.7.9-.5 0-.9-.1-1.3-.3-.3-.2-.6-.5-.7-1-.1-.2-.1-.4-.1-.8 0 0 0-.1.1-.1h4.9c.1 0 .2 0 .2-.2v-1.4c-.1-1-.4-1.8-.9-2.3s-1.3-.8-2.3-.8c-.8 0-1.4.2-2 .6-.6.4-.9 1-1.1 1.7-.1.4-.2 1-.2 1.7 0 .9.1 1.6.4 2.2s.6 1.1 1.1 1.4 1.1.5 1.9.5c.7 0 1.3-.1 1.8-.4.2-.1.7-.5 1-.9zm-4.8-4.1c.1-.4.3-.7.6-.9.3-.2.6-.3 1.1-.3.4 0 .8.1 1.1.4.3.2.5.6.6 1 0 .2.1.4.1.7 0 0 0 .1-.1.1h-3.5s-.1 0-.1-.1c.1-.4.1-.7.2-.9zm7.7-5.5c-.3 0-.5.1-.7.3-.2.2-.3.4-.3.7 0 .3.1.5.3.7.2.2.4.3.7.3.3 0 .5-.1.7-.3.2-.2.3-.4.3-.7 0-.3-.1-.5-.3-.7-.2-.2-.5-.3-.7-.3zm-.7 3.2c-.1 0-.2.1-.2.2v7.4c0 .1.1.2.2.2h1.2c.1 0 .2-.1.2-.2v-7.4c0-.1-.1-.2-.2-.2H30zm5-3h-1.2c-.1 0-.2.1-.2.2v10.4c0 .1 0 .2.2.2H35c.1 0 .2-.1.2-.2v-2.6l1.4-1.6h.1l1.8 4.1c0 .1.1.1.2.1h1.2c.1 0 .1 0 .1-.1v-.1l-2.3-5v-.1l2-2.3c0-.1.1-.1 0-.1l-.1-.1h-1.4c-.1 0-.1 0-.2.1l-2.8 3.1v-5.9c-.1 0-.1-.1-.2-.1zm6.5 10.6c0 .1 0 .2.2.2h1.2c.1 0 .2-.1.2-.2v-2.6l1.4-1.6h.1l1.8 4.1c0 .1.1.1.2.1h1.2c.1 0 .1 0 .1-.1v-.1l-2.3-5v-.1l2-2.3c0-.1.1-.1 0-.1l-.1-.1h-1.4c-.1 0-.1 0-.2.1l-2.8 3.1v-5.9c0-.1-.1-.2-.2-.2h-1.2c-.1 0-.2.1-.2.2v10.5zm9.4 0v-7.4c0-.1-.1-.2-.2-.2h-1.2c-.1 0-.2.1-.2.2v7.4c0 .1.1.2.2.2h1.2c.1-.1.2-.1.2-.2zm-.7-10.8c-.3 0-.5.1-.7.3-.2.2-.3.4-.3.7 0 .3.1.5.3.7s.4.3.7.3.5-.1.7-.3c.2-.2.3-.4.3-.7 0-.3-.1-.5-.3-.7-.2-.2-.4-.3-.7-.3zm3 .2c-.1 0-.2.1-.2.2v10.4c0 .1 0 .2.2.2h1.2c.1 0 .2-.1.2-.2v-10.4c0-.1-.1-.2-.2-.2h-1.2zm7.8-.3c-.3 0-.5.1-.7.3-.2.2-.3.4-.3.7 0 .3.1.5.3.7s.4.3.7.3.5-.1.7-.3c.2-.2.3-.4.3-.7 0-.3-.1-.5-.3-.7-.2-.2-.5-.3-.7-.3zm1.7 5.7c0-.5-.1-.9-.4-1.3-.2-.4-.6-.7-1.1-.9-.5-.2-1-.3-1.6-.3-.8 0-1.5.2-2.1.6s-.9.9-1 1.5c0 .1 0 .1.1.1l1.2.2c.1 0 .2 0 .2-.1.1-.3.2-.5.5-.7s.6-.3 1-.3c.5 0 .9.1 1.2.4s.4.6.4 1v.4s0 .1-.1.1h-1.7c-1 0-1.8.2-2.3.7s-.8 1.1-.8 1.9.2 1.4.7 1.7c.5.4 1.1.6 1.9.6.5 0 .9-.1 1.3-.2s.7-.4 1-.6h.1v.5c0 .1.1.2.2.2h1.2c.1 0 .2-.1.2-.2V137h-.1zm-1.5 2.7c0 .4-.2.8-.6 1.1-.4.3-.9.4-1.4.4-.4 0-.8-.1-1.1-.3-.3-.2-.4-.5-.4-.9s.2-.7.5-1c.4-.2.8-.4 1.4-.4H61s.1 0 .1.1l.1 1zm-4-7.4c0 .3.1.5.3.7s.4.3.7.3.5-.1.7-.3c.2-.2.3-.4.3-.7 0-.3-.1-.5-.3-.7s-.4-.3-.7-.3-.5.1-.7.3c-.1.2-.3.4-.3.7zm16.4 9l.9.9c.1.1.1.1.2.1H76c.1 0 .1 0 .1-.1v-.1c-.6-.7-1-1.2-1.4-1.6v-.1c.4-.4.8-1 1.3-1.6.1-.1 0-.2 0-.2l-.9-.5h-.2c-.2.3-.5.7-1 1.3l-.1-.1c-.9-1-1.5-1.7-1.9-2.2v-.1c.7-.4 1.2-.9 1.5-1.3s.6-1 .6-1.6c0-.7-.3-1.3-.8-1.8s-1.2-.7-2.1-.7c-.5 0-1 .1-1.4.3-.4.2-.7.5-1 .9-.2.4-.3.8-.3 1.2 0 .4.1.8.3 1.1.2.4.6.9 1.1 1.6v.1c-.7.4-1.2.9-1.6 1.4s-.6 1.1-.6 1.8c0 .8.3 1.5.9 1.9s1.3.6 2.3.6c.6 0 1.1-.1 1.6-.3s.7-.5 1.2-.9zm-3.6-8.1c.2-.2.6-.3 1-.3s.7.1 1 .3c.3.2.4.5.4.9s-.1.7-.4 1-.6.6-1.1.9h-.1c-.4-.6-.7-1-.9-1.2-.1-.2-.2-.5-.2-.7-.1-.4 0-.7.3-.9zm-.8 7.6c-.3-.2-.5-.6-.5-1s.1-.8.4-1.1c.3-.3.7-.7 1.2-1h.1l1.1 1.3c.1.1.2.3.5.6l.5.6v.1c-.8.6-1.5.8-2.2.8-.3.1-.7 0-1.1-.3zm18.6 0c.3-.5.5-1.1.5-1.8 0-.1-.1-.2-.2-.2l-1.2-.1c-.1 0-.2 0-.2.1 0 .7-.2 1.2-.6 1.6s-1 .6-1.6.6c-.7 0-1.2-.2-1.6-.6s-.6-.9-.6-1.6v-4.1c0-.7.2-1.2.6-1.6s1-.6 1.6-.6c.7 0 1.2.2 1.6.6s.6.9.6 1.6c0 .1.1.1.2.1l1.2-.1h.1v-.1c0-.7-.2-1.3-.5-1.8s-.7-.9-1.3-1.2c-.6-.3-1.2-.4-1.9-.4s-1.4.1-1.9.4c-.6.3-1 .7-1.3 1.2s-.5 1.1-.5 1.8v4c0 .7.2 1.3.5 1.8s.7.9 1.3 1.2c.6.3 1.2.4 1.9.4s1.4-.1 1.9-.4c.8.1 1.2-.3 1.4-.8zm7.5-5.8c-.5-.4-1.2-.6-1.9-.6-.8 0-1.4.2-2 .6s-1 .9-1.2 1.6c-.2.5-.3 1.1-.3 1.8s.1 1.3.3 1.9c.2.7.6 1.2 1.2 1.6s1.2.6 2 .6c.7 0 1.4-.2 1.9-.6s.9-.9 1.2-1.6c.2-.5.3-1.2.3-1.9s-.1-1.3-.3-1.8c-.3-.7-.7-1.2-1.2-1.6zm-.1 4.9c-.1.4-.4.7-.7 1-.3.2-.7.3-1.1.3s-.8-.1-1.1-.3c-.3-.2-.5-.6-.6-1s-.2-.8-.2-1.4.1-1.1.2-1.4c.1-.4.4-.7.7-1 .3-.2.7-.3 1.1-.3s.8.1 1.1.3c.3.2.5.6.7 1 .1.4.2.8.2 1.4-.2.5-.3 1-.3 1.4zm-79.4 13.5c-.1 0-.1 0 0 0l2-2.4c0-.1.1-.1 0-.1l-.1-.1h-1.4c-.1 0-.1 0-.2.1l-2.8 3.1v-5.9c0-.1-.1-.2-.2-.2h-1.2c-.1 0-.2.1-.2.2v10.4c0 .1.1.2.2.2h1.2c.1 0 .2-.1.2-.2v-2.6l1.4-1.6h.1l1.8 4.1c0 .1.1.1.2.1H18c.1 0 .1 0 .1-.1v-.1l-2.3-4.9zm4.6-5.7c-.3 0-.5.1-.7.3-.2.2-.3.4-.3.7 0 .3.1.5.3.7s.4.3.7.3c.3 0 .5-.1.7-.3.2-.2.3-.4.3-.7 0-.3-.1-.5-.3-.7-.1-.2-.4-.3-.7-.3zm-.6 3.2c-.1 0-.2.1-.2.2v7.4c0 .1.1.2.2.2H21c.1 0 .2-.1.2-.2v-7.4c0-.1 0-.2-.2-.2h-1.2zm4.4-3.2c-.3 0-.5.1-.7.3-.2.2-.3.4-.3.7 0 .3.1.5.3.7.2.2.4.3.7.3s.5-.1.7-.3c.2-.2.3-.4.3-.7 0-.3-.1-.5-.3-.7 0-.2-.4-.3-.7-.3zm-.5 3.2c-.1 0-.2.1-.2.2v7.4c0 .1.1.2.2.2h1.2c.1 0 .2-.1.2-.2v-7.4c0-.1 0-.2-.2-.2h-1.2zm5.7 0c-.2 0-.2 0 0 0l-.1-1.9c0-.1-.1-.2-.2-.2H28c-.1 0-.2.1-.2.2v1.8s0 .1-.1.1h-.9c-.1 0-.2.1-.2.2v.9c0 .1 0 .2.2.2h.9s.1 0 .1.1v4.6c0 .8.2 1.3.6 1.5.4.3 1 .4 1.7.4h.7c.1 0 .2-.1.2-.2v-.9c0-.1-.1-.2-.2-.2h-.4c-.4 0-.7-.1-.9-.3-.2-.2-.3-.5-.3-.9v-4s0-.1.1-.1h1.6c.1 0 .2-.1.2-.2v-.9c0-.1-.1-.2-.2-.2h-1.5zm5.6 0s-.1 0 0 0l-.1-1.9c0-.1-.1-.2-.2-.2h-1.1c-.1 0-.2.1-.2.2v1.8s0 .1-.1.1h-.9c-.1 0-.2.1-.2.2v.9c0 .1 0 .2.2.2h.9s.1 0 .1.1v4.6c0 .8.2 1.3.6 1.5.4.3 1 .4 1.7.4h.7c.1 0 .2-.1.2-.2v-.9c0-.1-.1-.2-.2-.2H36c-.4 0-.7-.1-.9-.3-.2-.2-.3-.5-.3-.9v-4s0-.1.1-.1h1.6c.1 0 .2-.1.2-.2v-.9c0-.1-.1-.2-.2-.2H35zm7.2-3c-.2.2-.3.4-.3.7 0 .3.1.5.3.7s.4.3.7.3.5-.1.7-.3c.2-.2.3-.4.3-.7 0-.3-.1-.5-.3-.7s-.4-.3-.7-.3c-.3.1-.7.2-.7.3zm-2.1 1.7c.3 0 .5-.1.7-.3.2-.2.3-.4.3-.7 0-.3-.1-.5-.3-.7s-.4-.3-.7-.3-.5.1-.7.3c-.2.2-.3.4-.3.7 0 .3.1.5.3.7.2.2.4.3.7.3zm3 1.5c-.5-.2-1-.3-1.6-.3-.8 0-1.5.2-2.1.6s-.9.9-1 1.5c0 .1 0 .1.1.1l1.2.2c.1 0 .2 0 .2-.1.1-.3.2-.5.5-.7s.6-.3 1-.3c.5 0 .9.1 1.2.4s.4.6.4 1v.4s0 .1-.1.1h-1.7c-1 0-1.8.2-2.3.7-.6.5-.8 1.1-.8 1.9s.2 1.4.7 1.7c.5.4 1.1.6 1.9.6.5 0 .9-.1 1.3-.2s.7-.4 1-.6h.1v.5c0 .1.1.2.2.2h1.2c.1 0 .2-.1.2-.2v-5.2c0-.5-.1-.9-.4-1.3-.4-.5-.8-.8-1.2-1zM43 156c0 .4-.2.8-.6 1.1-.4.3-.9.4-1.4.4-.4 0-.8-.1-1.1-.3-.3-.2-.4-.5-.4-.9s.2-.7.5-1c.4-.2.8-.4 1.4-.4h1.4s.1 0 .1.1l.1 1zm8-4.9c-.5-.2-1-.3-1.6-.3-.8 0-1.5.2-2.1.6s-.9.9-1 1.5c0 .1 0 .1.1.1l1.2.2c.1 0 .2 0 .2-.1.1-.3.2-.5.5-.7s.6-.3 1-.3c.5 0 .9.1 1.2.4s.4.6.4 1v.4s0 .1-.1.1h-1.6c-1 0-1.8.2-2.3.7-.6.5-.8 1.1-.8 1.9s.2 1.4.7 1.7c.5.4 1.1.6 1.9.6.5 0 .9-.1 1.3-.2s.7-.4 1-.6h.1v.5c0 .1.1.2.2.2h.9c.1 0 .2-.1.2-.2v-5.2c0-.5-.1-.9-.4-1.3-.2-.5-.6-.8-1-1zm-.1 4.9c0 .4-.2.8-.6 1.1-.4.3-.9.4-1.4.4-.4 0-.8-.1-1.1-.3-.3-.2-.4-.5-.4-.9s.2-.7.5-1c.4-.2.8-.4 1.4-.4h1.4s.1 0 .1.1l.1 1zm-3.9-7.4c0 .3.1.5.3.7s.4.3.7.3.5-.1.7-.3c.2-.2.3-.4.3-.7 0-.3-.1-.5-.3-.7s-.4-.3-.7-.3-.5.1-.7.3-.3.5-.3.7zm3.7 1c.3 0 .5-.1.7-.3.2-.2.3-.4.3-.7 0-.3-.1-.5-.3-.7s-.4-.3-.7-.3-.5.1-.7.3c-.2.2-.3.4-.3.7 0 .3.1.5.3.7.2.2.5.3.7.3zm8.8 1.3c-.1 0-.1 0 0 0l-.1-1.9c0-.1-.1-.2-.2-.2h-1.1c-.1 0-.2.1-.2.2v1.8s0 .1-.1.1h-.9c-.1 0-.2.1-.2.2v.9c0 .1 0 .2.2.2h.9s.1 0 .1.1v4.6c0 .8.2 1.3.6 1.5.4.3 1 .4 1.7.4h.7c.1 0 .2-.1.2-.2v-.9c0-.1-.1-.2-.2-.2h-.4c-.4 0-.7-.1-.9-.3-.2-.2-.3-.5-.3-.9v-4s0-.1.1-.1H61c.1 0 .2-.1.2-.2v-.9c0-.1-.1-.2-.2-.2h-1.5zm8.7.6c-.5-.5-1.3-.8-2.3-.8-.8 0-1.4.2-2 .6s-.9 1-1.1 1.7c-.1.4-.2 1-.2 1.7 0 .9.1 1.6.4 2.2.3.6.6 1.1 1.1 1.4.5.3 1.1.5 1.9.5.7 0 1.3-.1 1.8-.4s.9-.6 1.2-1.1v-.2l-.9-.6c-.1-.1-.1-.1-.2 0-.4.6-1 .9-1.7.9-.5 0-.9-.1-1.3-.3-.3-.2-.6-.5-.7-1-.1-.2-.1-.4-.1-.8 0 0 0-.1.1-.1H69c.1 0 .2 0 .2-.2v-1.4c-.2-.8-.5-1.5-1-2.1zm-.5 2.7h-3.5s-.1 0-.1-.1c0-.3.1-.6.1-.9.1-.4.3-.7.6-.9.3-.2.6-.3 1.1-.3.4 0 .8.1 1.1.4.3.2.5.6.6 1 .1.1.1.4.1.8 0-.1 0 0 0 0zm8.5-2.8c-.5-.4-1.2-.6-1.9-.6-.8 0-1.4.2-2 .6s-1 .9-1.2 1.6c-.2.5-.3 1.1-.3 1.8s.1 1.3.3 1.9c.2.7.6 1.2 1.2 1.6s1.2.6 2 .6c.7 0 1.4-.2 1.9-.6s.9-.9 1.2-1.6c.2-.5.3-1.2.3-1.9s-.1-1.3-.3-1.8c-.3-.7-.7-1.3-1.2-1.6zm-.4 4.8c-.1.4-.4.7-.7 1-.3.2-.7.3-1.1.3s-.8-.1-1.1-.3c-.3-.2-.5-.6-.6-1s-.2-.8-.2-1.4.1-1.1.2-1.4c.1-.4.4-.7.7-1 .3-.2.7-.3 1.1-.3s.8.1 1.1.3c.3.2.5.6.7 1 .1.4.2.8.2 1.4 0 .5 0 1-.3 1.4zm4.5-8.5c-.3 0-.5.1-.7.3-.2.2-.3.4-.3.7 0 .3.1.5.3.7.2.2.4.3.7.3.3 0 .5-.1.7-.3.2-.2.3-.4.3-.7 0-.3-.1-.5-.3-.7-.2-.2-.3-.3-.7-.3zm-.5 3.2c-.1 0-.2.1-.2.2v7.4c0 .1.1.2.2.2H81c.1 0 .2-.1.2-.2v-7.4c0-.1 0-.2-.2-.2h-1.2zm3.8-2.9c-.1 0-.2.1-.2.2v10.4c0 .1.1.2.2.2h1.2c.1 0 .2-.1.2-.2v-10.4c0-.1-.1-.2-.2-.2h-1.2zm3.5 0c-.1 0-.2.1-.2.2v10.4c0 .1 0 .2.2.2h1.2c.1 0 .2-.1.2-.2v-10.4c0-.1-.1-.2-.2-.2h-1.2zm7.9 3.1c-.5-.2-1-.3-1.6-.3-.8 0-1.5.2-2.1.6s-.9.9-1 1.5c0 .1 0 .1.1.1l1.2.2c.1 0 .2 0 .2-.1.1-.3.2-.5.5-.7s.6-.3 1-.3c.5 0 .9.1 1.2.4.3.3.4.6.4 1v.4s0 .1-.1.1h-1.6c-1 0-1.8.2-2.3.7-.6.5-.8 1.1-.8 1.9s.2 1.4.7 1.7c.5.4 1.1.6 1.9.6.5 0 .9-.1 1.3-.2s.7-.4 1-.6h.1v.5c0 .1.1.2.2.2h1.2c.1 0 .2-.1.2-.2v-5.2c0-.5-.1-.9-.4-1.3-.5-.5-.8-.8-1.3-1zm0 4.9c0 .4-.2.8-.6 1.1-.4.3-.9.4-1.4.4-.4 0-.8-.1-1.1-.3-.3-.2-.4-.5-.4-.9s.2-.7.5-1c.4-.2.8-.4 1.4-.4h1.4s.1 0 .1.1l.1 1z"/></g></svg>