<svg version="1.1" id="Layer_1" xmlns="http://www.w3.org/2000/svg" xmlns:xlink="http://www.w3.org/1999/xlink" x="0" y="0" viewBox="0 0 108 120" xml:space="preserve"><style/><defs><path id="SVGID_1_" d="M-19.2-19h146.3v158H-19.2z"/></defs><clipPath id="SVGID_00000062885347276425817610000010202058517665207682_"><use xlink:href="#SVGID_1_" overflow="visible"/></clipPath><path d="M43.1 111.5v-.1l4.2-5c0-.1.1-.1.1-.2s-.1-.1-.2-.1h-1.4c-.1 0-.2 0-.3.1l-5.1 5.8h-.1v-5.8c0-.1 0-.1-.1-.2 0 0-.1-.1-.2-.1h-1.2c-.1 0-.2 0-.2.1 0 0-.1.1-.1.2v12.1c0 .1 0 .2.1.2 0 0 .1.1.2.1H40c.1 0 .1 0 .2-.1 0 0 .1-.1.1-.2v-4.1l1.5-1.7c0-.1.1-.1.1 0l3.9 5.8c.1.1.2.2.3.2h1.4c.2 0 .2-.1.2-.2s0-.1-.1-.2l-4.5-6.6zm8-5.4h-1.2c-.1 0-.2 0-.2.1 0 0-.1.1-.1.2v12.1c0 .1 0 .2.1.2 0 0 .1.1.2.1h1.2c.1 0 .1 0 .2-.1 0 0 .1-.1.1-.2v-12.1c0-.1 0-.1-.1-.2s-.1-.1-.2-.1m11.2 11.2h-6.1c-.1 0-.1 0-.1-.1v-10.8c0-.1 0-.1-.1-.2 0 0-.1-.1-.2-.1h-1.2c-.1 0-.1 0-.2.1-.1 0-.1.1-.1.2v12.1c0 .1 0 .2.1.2 0 0 .1.1.2.1h7.7c.1 0 .2 0 .2-.1 0 0 .1-.1.1-.2v-1c0-.1 0-.2-.1-.2h-.2m7.4-11c0-.1-.2-.2-.3-.2h-1.7c-.2 0-.3.1-.3.2l-3.9 12.2c-.1.2 0 .3.2.3H65c.2 0 .3-.1.3-.2l.6-2 .1-.1h5.1s.1 0 .1.1l.6 2c0 .1.1.2.3.2h1.3c.2 0 .2-.1.2-.2v-.1l-3.9-12.2zm1 8.8h-4.1c-.1 0-.1 0-.1-.1l2.1-6.8s0-.1.1-.1l.1.1 2.1 6.8c-.1.1-.2.1-.2.1m24.1-4.9h.2l1.2-.1c.2 0 .3-.1.3-.2 0-.8-.2-1.5-.6-2.1-.4-.6-.9-1.1-1.5-1.4-.7-.3-1.4-.5-2.3-.5-.9 0-1.6.2-2.3.5-.7.3-1.2.8-1.6 1.4-.4.6-.6 1.3-.6 2.2v4.7c0 .8.2 1.5.6 2.2.4.6.9 1.1 1.6 1.5.7.3 1.4.5 2.3.5.9 0 1.6-.2 2.3-.5.7-.3 1.2-.8 1.5-1.4.4-.6.6-1.3.6-2.1v-.1s-.1-.1-.3-.1l-1.2-.1h-.2s-.1.1-.1.2c0 .8-.2 1.4-.7 1.9-.5.5-1.1.7-1.9.7-.8 0-1.5-.2-1.9-.7-.5-.5-.7-1.1-.7-1.9V110c0-.8.2-1.4.7-1.9.5-.5 1.1-.7 1.9-.7.8 0 1.5.2 1.9.7.5.5.7 1.1.7 1.9l.1.2m-62.9 1.3v-.1l4.2-5c0-.1.1-.1.1-.2s-.1-.1-.2-.1h-1.4c-.1 0-.2 0-.3.1l-5.1 5.8h-.1v-5.8c0-.1 0-.1-.1-.2 0 0-.1-.1-.2-.1h-1.2c-.1 0-.2 0-.2.1 0 0-.1.1-.1.2v12.1c0 .1 0 .2.1.2 0 0 .1.1.2.1h1.2c.1 0 .2 0 .2-.1 0 0 .1-.1.1-.2v-4.1l1.5-1.7c0-.1.1-.1.1 0l3.9 5.8c.1.1.2.2.3.2h1.4c.2 0 .2-.1.2-.2s0-.1-.1-.2l-4.5-6.6zm74.9-3.5c-.4-.7-.9-1.2-1.6-1.5-.7-.4-1.5-.5-2.4-.5-.9 0-1.7.2-2.3.5-.7.4-1.2.9-1.6 1.5-.4.7-.6 1.4-.6 2.3v4.3c0 .9.2 1.6.6 2.3.4.7.9 1.2 1.6 1.5.7.4 1.5.5 2.3.5.9 0 1.7-.2 2.4-.5.7-.4 1.2-.9 1.6-1.5.4-.7.6-1.4.6-2.3v-4.3c-.1-.9-.3-1.6-.6-2.3m-1.2 6.7c0 .8-.3 1.5-.8 2s-1.2.8-2 .8-1.5-.3-2-.8-.8-1.2-.8-2v-4.4c0-.8.3-1.5.8-2s1.2-.8 2-.8 1.5.3 2 .8.8 1.2.8 2v4.4zm-96.4-8.6H8c-.1 0-.1 0-.2.1 0 0-.1.1-.1.2v5.2c0 .1 0 .1-.1.1h-5c-.1 0-.1 0-.1-.1v-5.2c0-.1 0-.1-.1-.2 0 0-.1-.1-.2-.1H1c-.1 0-.2 0-.2.1 0 0-.1.1-.1.2v12.1c0 .1 0 .2.1.2 0 0 .1.1.2.1h1.2c.1 0 .2 0 .2-.1 0 0 .1-.1.1-.2v-5.3c0-.1 0-.1.1-.1h5.1c.1 0 .1 0 .1.1v5.3c0 .1 0 .2.1.2 0 0 .1.1.2.1h1.2c.1 0 .1 0 .2-.1 0 0 .1-.1.1-.2v-12.1c0-.1 0-.1-.1-.2s-.2-.1-.3-.1m57.1-1.1H71v-1.1h-4.8v1.1h.1m-42.2 1.1h-1.2c-.1 0-.2 0-.2.1 0 0-.1.1-.1.2v12.1c0 .1 0 .2.1.2 0 0 .1.1.2.1h1.2c.1 0 .1 0 .2-.1 0 0 .1-.1.1-.2v-12.1c0-.1 0-.1-.1-.2s-.1-.1-.2-.1m-4 0h-7.9c-.1 0-.2 0-.2.1 0 0-.1.1-.1.2v12.1c0 .1 0 .2.1.2 0 0 .1.1.2.1h7.9c.1 0 .1 0 .2-.1 0 0 .1-.1.1-.2v-1c0-.1 0-.2-.1-.2 0 0-.1-.1-.2-.1h-6.3c-.1 0-.1 0-.1-.1v-3.9c0-.1 0-.1.1-.1h4.3c.1 0 .2 0 .2-.1 0 0 .1-.1.1-.2v-1c0-.1 0-.1-.1-.2 0 0-.1-.1-.2-.1h-4.3c-.1 0-.1 0-.1-.1v-3.9c0-.1 0-.1.1-.1h6.3c.1 0 .1 0 .2-.1 0 0 .1-.1.1-.2v-1c0-.1 0-.1-.1-.2-.1.2-.1.2-.2.2M86 117.7l-1.4-1.2c.5-.7.8-1.6.9-1.6.1-.4-.2-.5-.6-.7-.4-.1-.7-.2-.8.2l-.5 1c-.6-.6-1.3-1.3-1.9-2.1l-.3-.3c-.2-.3-.5-.5-.7-.8 2-.7 2.8-1.7 2.8-3.2 0-.8-.3-1.6-.8-2.1-.4-.4-1.1-.9-2.4-.8-1 0-1.8.4-2.3 1.1-.6.7-.7 1.8-.5 2.7.2.6.5 1.2.9 1.8-1.7 1-2.5 2.1-2.5 3.6 0 1.8 1.1 3.8 4.2 3.8h.1c1.6 0 2.8-.6 3.6-1.4.7.6 1.3 1.2 1.4 1.2.3.3.6.1.8-.2.1-.5.3-.7 0-1m-6.9-9.7c.2-.3.6-.5 1.1-.5.6 0 1 .1 1.3.4.4.4.4.9.4 1.1 0 .5 0 1.1-1.8 1.8-.1.1-.3.1-.4.2-.4-.6-.7-1.1-.8-1.5-.2-.6-.1-1.2.2-1.5m.9 9.4c-2.2 0-2.7-1.3-2.7-2.3 0-.4 0-1.4 1.9-2.4.3.4.6.8 1 1.2l.3.3c.7.8 1.4 1.6 2.1 2.3-.7.5-1.5 1-2.6.9m-7.5-56v.1c.1 2.7.2 4 .3 4.5.4 2.2 1.4 3.9 3.1 5.3 1.7 1.4 3.8 2 6.4 2 2.6 0 4.7-.7 6.4-2 1.7-1.3 2.7-3.1 3.2-5.3.1-.6.3-2.4.3-8.1 0-4.1-.1-6.5-.3-7.4-.4-2.2-1.5-3.9-3.2-5.2-1.7-1.4-3.9-2.1-6.4-2.1-2.6 0-4.7.7-6.4 2-1.7 1.3-2.7 3.1-3.1 5.3-.2 1.3-.3 3.5-.3 7.4v3.5" clip-path="url(#SVGID_00000062885347276425817610000010202058517665207682_)" fill="#20335f"/><path d="M3.7 99.5h100.6c1.6 0 2.9-1.3 2.9-2.9V3.7c0-1.6-1.3-2.9-2.9-2.9H3.7C2.1.8.8 2.1.8 3.7v92.9c0 1.6 1.3 2.9 2.9 2.9M11 24.7c0-1.5 1.1-2.6 2.6-2.6h1.1c1.5 0 2.6 1.1 2.6 2.6v22.7h18.1v-8.3c0-3.4.8-6.5 2.3-9.1 1.6-2.7 3.8-4.8 6.6-6.3 2.8-1.4 6-2.2 9.7-2.2 3.6 0 6.8.7 9.6 2.2 2.8 1.5 5.1 3.6 6.6 6.3.6 1.1 1.1 2.2 1.5 3.5.3.9-.1 1.9-1 2.3l-1 .5c-.4.2-.7.4-1.1.5-.5.3-1.2.3-1.7 0s-.9-.7-1.1-1.3c-.5-1.9-1.4-3.4-2.9-4.8-2.3-2.1-5.2-3.2-9.1-3.2-3.8 0-6.8 1-9.1 3.2-2.2 2.1-3.3 4.8-3.3 8.3v23c0 3.5 1.1 6.2 3.3 8.3 2.3 2.2 5.3 3.2 9.1 3.2s6.7-1 9-3.2c2.2-2.1 3.3-4.9 3.3-8.3v-4.1c0-2.4 0-3.7.1-5.1.1-1.6.3-2.9.5-4.1.8-3.5 2.6-6.3 5.4-8.4 2.7-2.1 6.1-3.1 10-3.1 3.9 0 7.3 1.1 10.1 3.1 2.8 2.1 4.7 4.9 5.4 8.4.4 1.7.6 4.2.6 7.7v4c0 3.4-.2 5.9-.6 7.6-.8 3.4-2.6 6.2-5.4 8.3-2.8 2.1-6.2 3.1-10 3.1-3.9 0-7.2-1-10-3.1-1.3-1-2.5-2.2-3.4-3.6-1.4 1.9-3.3 3.4-5.5 4.6-2.8 1.4-6 2.2-9.6 2.2-3.6 0-6.9-.7-9.7-2.2-2.8-1.5-5.1-3.6-6.6-6.3-1.4-2.5-2.2-5.3-2.3-8.4v-9.2H17.2v22.8c0 1.5-1.1 2.6-2.6 2.6h-1.1c-1.5 0-2.6-1.1-2.6-2.6V24.7z" clip-path="url(#SVGID_00000062885347276425817610000010202058517665207682_)" fill="#20335f"/></svg>