<svg version="1.1" id="Layer_1" xmlns="http://www.w3.org/2000/svg" xmlns:xlink="http://www.w3.org/1999/xlink" x="0" y="0" viewBox="0 0 108 101" xml:space="preserve"><style/><defs><path id="SVGID_1_" d="M-19.2-19h146.3v158H-19.2z"/></defs><clipPath id="SVGID_00000167373653585992015920000007652083981303527068_"><use xlink:href="#SVGID_1_" overflow="visible"/></clipPath><path d="M72.5 61.4v.1c.1 2.7.2 4 .3 4.5.4 2.2 1.4 3.9 3.1 5.3 1.7 1.4 3.8 2 6.4 2 2.6 0 4.7-.7 6.4-2 1.7-1.3 2.7-3.1 3.2-5.3.1-.6.3-2.4.3-8.1 0-4.1-.1-6.5-.3-7.4-.4-2.2-1.5-3.9-3.2-5.2-1.7-1.4-3.9-2.1-6.4-2.1-2.6 0-4.7.7-6.4 2-1.7 1.3-2.7 3.1-3.1 5.3-.2 1.3-.3 3.5-.3 7.4v3.5" clip-path="url(#SVGID_00000167373653585992015920000007652083981303527068_)" fill="#20335f"/><path d="M3.7 99.5h100.6c1.6 0 2.9-1.3 2.9-2.9V3.7c0-1.6-1.3-2.9-2.9-2.9H3.7C2.1.8.8 2.1.8 3.7v92.9c0 1.6 1.3 2.9 2.9 2.9M11 24.7c0-1.5 1.1-2.6 2.6-2.6h1.1c1.5 0 2.6 1.1 2.6 2.6v22.7h18.1v-8.3c0-3.4.8-6.5 2.3-9.1 1.6-2.7 3.8-4.8 6.6-6.3 2.8-1.4 6-2.2 9.7-2.2 3.6 0 6.8.7 9.6 2.2 2.8 1.5 5.1 3.6 6.6 6.3.6 1.1 1.1 2.2 1.5 3.5.3.9-.1 1.9-1 2.3l-1 .5c-.4.2-.7.4-1.1.5-.5.3-1.2.3-1.7 0s-.9-.7-1.1-1.3c-.5-1.9-1.4-3.4-2.9-4.8-2.3-2.1-5.2-3.2-9.1-3.2-3.8 0-6.8 1-9.1 3.2-2.2 2.1-3.3 4.8-3.3 8.3v23c0 3.5 1.1 6.2 3.3 8.3 2.3 2.2 5.3 3.2 9.1 3.2s6.7-1 9-3.2c2.2-2.1 3.3-4.9 3.3-8.3v-4.1c0-2.4 0-3.7.1-5.1.1-1.6.3-2.9.5-4.1.8-3.5 2.6-6.3 5.4-8.4 2.7-2.1 6.1-3.1 10-3.1 3.9 0 7.3 1.1 10.1 3.1 2.8 2.1 4.7 4.9 5.4 8.4.4 1.7.6 4.2.6 7.7v4c0 3.4-.2 5.9-.6 7.6-.8 3.4-2.6 6.2-5.4 8.3-2.8 2.1-6.2 3.1-10 3.1-3.9 0-7.2-1-10-3.1-1.3-1-2.5-2.2-3.4-3.6-1.4 1.9-3.3 3.4-5.5 4.6-2.8 1.4-6 2.2-9.6 2.2-3.6 0-6.9-.7-9.7-2.2-2.8-1.5-5.1-3.6-6.6-6.3-1.4-2.5-2.2-5.3-2.3-8.4v-9.2H17.2v22.8c0 1.5-1.1 2.6-2.6 2.6h-1.1c-1.5 0-2.6-1.1-2.6-2.6V24.7z" clip-path="url(#SVGID_00000167373653585992015920000007652083981303527068_)" fill="#20335f"/></svg>