<svg xmlns="http://www.w3.org/2000/svg" width="409.082" height="66.854" viewBox="0 0 409.082 66.854"><defs><style>.a{fill:#20335f}</style></defs><path class="a" d="M59.597 30.152a6.454 6.454 0 00-4.326-1.4 6.216 6.216 0 00-4.327 1.4 6.013 6.013 0 00-2.094 3.629 32.682 32.682 0 00-.279 5.025v2.512c0 1.814.14 2.652.14 3.071a6.013 6.013 0 002.094 3.629 6.216 6.216 0 004.327 1.4 6.216 6.216 0 004.327-1.4 6.987 6.987 0 002.233-3.629c0-.419.14-1.675.14-5.583a38.515 38.515 0 00-.14-5.025 4.928 4.928 0 00-2.095-3.629"/><path class="a" d="M70.2 0H1.954A1.908 1.908 0 000 1.954V64.9a1.908 1.908 0 001.954 1.954H70.2a1.908 1.908 0 001.958-1.954V1.954A1.908 1.908 0 0070.2 0m-4.044 40.336a22.892 22.892 0 01-.419 5.164 9.616 9.616 0 01-3.629 5.583 11.073 11.073 0 01-6.839 2.094 10.661 10.661 0 01-6.7-2.094 8.894 8.894 0 01-2.233-2.373 10.174 10.174 0 01-3.768 3.071 14.782 14.782 0 01-13.12 0 10.3 10.3 0 01-4.466-4.327 11.315 11.315 0 01-1.535-5.722v-6.281H11.166v15.492a1.613 1.613 0 01-1.675 1.675h-.7a1.613 1.613 0 01-1.675-1.675V16.19a1.613 1.613 0 011.675-1.675h.558a1.613 1.613 0 011.675 1.675v15.353h12.284V25.96a12.518 12.518 0 011.535-6.141 10.776 10.776 0 014.466-4.187A14.213 14.213 0 0135.87 14.1a14.645 14.645 0 016.56 1.535 10 10 0 014.47 4.184 12.074 12.074 0 01.977 2.373 1.4 1.4 0 01-.7 1.535l-.7.279c-.279.14-.419.279-.7.419a1.529 1.529 0 01-1.117 0 1.031 1.031 0 01-.7-.837 6.879 6.879 0 00-1.954-3.35 8.623 8.623 0 00-6.141-2.094 8.623 8.623 0 00-6.141 2.094 7.064 7.064 0 00-2.224 5.583v15.631a7.064 7.064 0 002.233 5.583 8.937 8.937 0 006.141 2.233 8.329 8.329 0 006.141-2.233 7.368 7.368 0 002.233-5.722v-2.652a23.787 23.787 0 01.14-3.489 8.393 8.393 0 01.412-2.792 9.956 9.956 0 013.629-5.722 11.073 11.073 0 016.839-2.094 11.361 11.361 0 016.839 2.094 8.751 8.751 0 013.629 5.722 22.893 22.893 0 01.419 5.164v2.791zm152.132-9.072c-.14-.14 0-.279 0-.419l12.422-14.794a1.058 1.058 0 00.279-.558c0-.279-.279-.419-.7-.419h-4.048a1.267 1.267 0 00-.977.419l-15.21 17.306c-.14.14-.14.14-.279.14s-.14-.14-.14-.279V15.911a.725.725 0 00-.279-.558c-.14-.14-.279-.14-.558-.14h-3.489c-.279 0-.419 0-.558.14a.725.725 0 00-.279.558v36.01a.987.987 0 00.837.837h3.489a.987.987 0 00.837-.837V40.197a.513.513 0 01.14-.419l4.466-4.885a.262.262 0 01.419 0L226.105 52.2a.934.934 0 00.977.558h4.048c.419 0 .7-.14.7-.419a.513.513 0 00-.14-.419zm23.867-16.19h-3.489c-.279 0-.419 0-.558.279a.725.725 0 00-.279.558v36.01a.987.987 0 00.837.837h3.489a.987.987 0 00.837-.837v-36.01a.987.987 0 00-.837-.837m33.358 33.217h-18.284a.3.3 0 01-.279-.279V15.913a.725.725 0 00-.279-.558c-.14-.14-.279-.14-.558-.14h-3.489c-.279 0-.419 0-.558.14a.725.725 0 00-.279.558V51.92a.987.987 0 00.837.837h22.89a.987.987 0 00.837-.837v-2.791a.725.725 0 00-.279-.558.557.557 0 00-.558-.279m21.911-32.518a.93.93 0 00-.977-.7h-4.885a1.05 1.05 0 00-.977.7l-11.584 36.007c-.14.558 0 .977.7.977h3.768a1.05 1.05 0 00.977-.7l1.814-6c.14-.14.14-.279.279-.279h14.934c.14 0 .14.14.279.279l1.954 6a.93.93 0 00.977.7h3.904c.419 0 .7-.14.7-.558v-.279zm2.791 25.96h-12.282a.3.3 0 01-.279-.279l6.141-20.1a.487.487 0 01.14-.279c.14 0 .14.14.14.279l6.281 20.1c.14.14.14.279-.14.279m71.879-14.519a.513.513 0 00.419.14h.279l3.489-.14c.558-.14.837-.279.837-.7a11.738 11.738 0 00-1.675-6.281 11.139 11.139 0 00-4.606-4.187 16 16 0 00-13.678 0 11.467 11.467 0 00-4.606 4.327 12.235 12.235 0 00-1.675 6.42v13.96a11.892 11.892 0 001.675 6.42 11.467 11.467 0 004.606 4.327 16 16 0 0013.678 0 11.139 11.139 0 004.606-4.187 11.739 11.739 0 001.675-6.281v-.279c0-.14-.279-.14-.837-.279l-3.489-.279c-.279 0-.419 0-.558.14s-.279.279-.279.419a7.693 7.693 0 01-2.094 5.583 8.867 8.867 0 01-11.445 0 7.561 7.561 0 01-2.237-5.584V26.797a7.262 7.262 0 012.233-5.583 8.867 8.867 0 0111.445 0 7.473 7.473 0 012.094 5.583v.279c-.14 0 0 .14.14.14M185.21 31.264c-.14-.14 0-.279 0-.419l12.422-14.794a1.058 1.058 0 00.279-.558c0-.279-.279-.419-.7-.419h-4.048a1.267 1.267 0 00-.977.419l-15.21 17.306c-.14.14-.14.14-.279.14s-.14-.14-.14-.279V15.911a.725.725 0 00-.279-.558c-.14-.14-.279-.14-.558-.14h-3.489c-.279 0-.419 0-.558.14a.725.725 0 00-.279.558v36.01a.987.987 0 00.837.837h3.489a.987.987 0 00.837-.837V40.197a.513.513 0 01.14-.419l4.466-4.885a.262.262 0 01.419 0L193.027 52.2a1.054 1.054 0 00.977.558h4.048c.419 0 .7-.14.7-.419a.513.513 0 00-.14-.419zm222.197-10.468a10.508 10.508 0 00-4.745-4.466 13.959 13.959 0 00-6.979-1.675 14.335 14.335 0 00-6.979 1.675 10.946 10.946 0 00-4.606 4.466 13.262 13.262 0 00-1.675 6.7v12.84a13.261 13.261 0 001.675 6.7 12.164 12.164 0 004.606 4.606 15.376 15.376 0 0013.957 0 12.532 12.532 0 004.745-4.606 13.261 13.261 0 001.675-6.7V27.495a13.262 13.262 0 00-1.675-6.7m-3.489 19.679a8 8 0 01-2.233 6 8.81 8.81 0 01-11.724 0 8 8 0 01-2.233-6V27.355a8 8 0 012.233-6 7.889 7.889 0 015.862-2.233 7.68 7.68 0 015.862 2.233 8 8 0 012.233 6zm-285.98-25.4h-3.489c-.279 0-.419 0-.558.279a.725.725 0 00-.279.558v15.353a.3.3 0 01-.279.279H98.118a.3.3 0 01-.279-.279V15.911a.987.987 0 00-.837-.837h-3.49c-.279 0-.419 0-.558.279a.725.725 0 00-.279.558v36.01a.987.987 0 00.837.837h3.489a.987.987 0 00.837-.837V36.289a.3.3 0 01.279-.279h15.213a.3.3 0 01.279.279v15.632a.987.987 0 00.837.837h3.489a.987.987 0 00.837-.837v-36.01a.987.987 0 00-.837-.837m169.302-3.35h13.538c.14 0 .279 0 .279-.14.14-.14.14-.14.14-.279V8.514c0-.14 0-.279-.14-.279-.14-.14-.14-.14-.279-.14h-13.538c-.14 0-.279 0-.279.14-.14.14-.14.14-.14.279v2.791c0 .14 0 .279.14.279a.487.487 0 00.279.14m-125.335 3.35h-3.489c-.279 0-.419 0-.558.279a.725.725 0 00-.279.558v36.01a.987.987 0 00.837.837h3.489a.987.987 0 00.837-.837v-36.01a.725.725 0 00-.279-.558c0-.14-.279-.279-.558-.279m-11.864 0H126.59c-.279 0-.419 0-.558.279a.725.725 0 00-.279.558v36.01a.987.987 0 00.837.837h23.448a.987.987 0 00.837-.837v-2.792a.987.987 0 00-.837-.837h-18.7a.3.3 0 01-.279-.279V36.289a.3.3 0 01.279-.279h12.84a.987.987 0 00.837-.837v-2.792a.987.987 0 00-.837-.837h-12.84a.3.3 0 01-.279-.279V19.819a.3.3 0 01.279-.279h18.7a.987.987 0 00.837-.837v-2.792a.725.725 0 00-.279-.558c0-.14-.279-.279-.558-.279m195.679 34.334s-2.094-1.814-4.048-3.629a26.849 26.849 0 002.512-4.745c.419-1.117-.558-1.535-1.814-1.954-1.117-.419-1.954-.7-2.512.558 0 0-.837 1.814-1.535 3.071a128.054 128.054 0 01-5.722-6.141l-.838-.974c-.7-.837-1.4-1.535-2.094-2.373 5.862-2.094 8.235-5.025 8.235-9.491a9.453 9.453 0 00-2.512-6.42 10.04 10.04 0 00-7.118-2.516 8.669 8.669 0 00-6.979 3.35 9.016 9.016 0 00-1.4 7.956 17.133 17.133 0 002.652 5.3c-5.025 2.791-7.4 6.42-7.4 10.747 0 5.443 3.21 11.166 12.422 11.305h.14a15.083 15.083 0 0010.607-4.048c1.954 1.814 4.048 3.489 4.048 3.629.977.837 1.675.279 2.512-.7 1.256-1.256 1.814-2.094.837-2.931M325.2 20.516a3.874 3.874 0 013.35-1.535h.14a5.118 5.118 0 013.768 1.256 4.507 4.507 0 011.256 3.21c0 1.4 0 3.35-5.443 5.3a4.958 4.958 0 00-1.256.558 15.239 15.239 0 01-2.512-4.606 4.915 4.915 0 01.7-4.187m2.648 28.198c-6.56 0-7.956-3.768-7.956-6.839 0-1.117 0-4.048 5.722-7.118.977 1.117 1.954 2.233 2.931 3.489l.837.977a100.678 100.678 0 006.141 6.7 10.928 10.928 0 01-7.676 2.791"/></svg>