<svg xmlns="http://www.w3.org/2000/svg" width="35.668" height="23.843" viewBox="0 0 35.668 23.843"><defs><clipPath id="a"><path class="a" d="M0 0h16v23.843H0z"/></clipPath><style>.a{fill:#b0bf54}</style></defs><g class="b"><path class="a" d="M4.344.217a5.247 5.247 0 00-3.156 2.048A6.221 6.221 0 000 6.071 6.144 6.144 0 001.175 9.85a5.365 5.365 0 003.163 2.045 9.134 9.134 0 001.552.2c.523.027 1.006.043 1.929.043q.815 0 1.43-.014h.11a4.1 4.1 0 013.152 1.265A4.727 4.727 0 0113.72 16.8a4.77 4.77 0 01-1.209 3.44 4.29 4.29 0 01-3.238 1.264.434.434 0 00-.434.436l.006 1.469a.434.434 0 00.434.432h.212a1.108 1.108 0 00.126-.008 6.844 6.844 0 003.16-.874 6.059 6.059 0 002.4-2.51A7.829 7.829 0 0016 16.8c0-1.35-.028-9.262-.028-10.732a6.152 6.152 0 00-1.19-3.794A5.4 5.4 0 0011.636.219 13.671 13.671 0 008.76 0H7.24a13.888 13.888 0 00-2.9.217"/></g><g class="b"><path class="a" d="M24.012.217a5.247 5.247 0 00-3.156 2.048 6.221 6.221 0 00-1.188 3.806 6.144 6.144 0 001.175 3.779 5.365 5.365 0 003.163 2.045 9.134 9.134 0 001.552.2c.523.027 1.006.043 1.929.043q.815 0 1.43-.014h.11a4.1 4.1 0 013.152 1.265 4.727 4.727 0 011.209 3.411 4.77 4.77 0 01-1.209 3.44 4.29 4.29 0 01-3.238 1.264.434.434 0 00-.434.436l.006 1.469a.434.434 0 00.434.432h.212a1.108 1.108 0 00.126-.008 6.844 6.844 0 003.16-.874 6.059 6.059 0 002.4-2.51 7.829 7.829 0 00.823-3.649c0-1.35-.028-9.262-.028-10.732a6.152 6.152 0 00-1.19-3.794A5.4 5.4 0 0031.304.219 13.671 13.671 0 0028.428 0h-1.52a13.888 13.888 0 00-2.9.217"/></g></svg>